<svg width="32" height="41" viewBox="0 0 32 41" fill="none" xmlns="http://www.w3.org/2000/svg">
<path d="M9.37276 4.38721C9.65684 4.83093 9.90935 5.27464 10.225 5.71836C11.0456 6.95443 11.9926 8.06373 12.971 9.17303C14.0758 10.4408 15.1805 11.7086 16.0958 13.1031C17.0112 14.4976 17.7056 16.019 17.9581 17.6671C18.5263 21.2168 17.5162 24.1644 14.6439 26.383C12.971 27.6824 11.0141 28.2529 8.93087 28.0311C5.58511 27.7141 3.18627 26.0026 1.73433 22.96C1.07149 21.5654 0.913674 20.0758 1.03993 18.5228C1.22931 16.2091 2.1131 14.149 3.47034 12.3107C4.51194 10.8845 5.61668 9.55336 6.72141 8.19051C7.66832 6.98613 8.61523 5.78175 9.37276 4.4189C9.3412 4.4189 9.37276 4.4189 9.37276 4.38721Z" stroke="#9E9E9E" stroke-linecap="round" stroke-linejoin="round"/>
<path d="M9.44739 6.14209C9.71899 6.53417 9.95664 6.95893 10.2282 7.35101C11.0091 8.46191 11.9257 9.47478 12.8084 10.4877C13.8269 11.6312 14.8794 12.7748 15.7621 14.0491C16.6448 15.3233 17.2898 16.6956 17.5275 18.1986C18.0707 21.4006 17.0861 24.1125 14.3701 26.1056C12.7745 27.2818 10.9412 27.7719 8.93815 27.6086C5.78081 27.3145 3.50617 25.7462 2.14818 23.0016C1.50313 21.7273 1.36733 20.3551 1.46918 18.9828C1.63893 16.8917 2.48768 15.0293 3.77777 13.3629C4.76232 12.0887 5.81476 10.8471 6.83326 9.60548C7.7499 8.52725 8.6326 7.41636 9.34554 6.17476C9.41344 6.17476 9.41344 6.14209 9.44739 6.14209Z" stroke="#9E9E9E" stroke-width="0.5" stroke-linecap="round" stroke-linejoin="round"/>
<path d="M18.05 0C18.1434 0.15415 18.2368 0.3083 18.3614 0.462449C18.6416 0.894069 18.984 1.29486 19.3265 1.66482C19.7312 2.12727 20.1048 2.55889 20.4473 3.05217C20.7897 3.54544 21.0388 4.06955 21.1322 4.65532C21.319 5.91935 20.9765 6.96757 19.9492 7.73832C19.3576 8.20077 18.6416 8.38575 17.8944 8.32409C16.6802 8.20077 15.8396 7.615 15.3103 6.53595C15.0613 6.04267 14.999 5.51856 15.0613 4.96362C15.1235 4.13121 15.4349 3.42212 15.933 2.7747C16.3066 2.28142 16.7113 1.78814 17.0849 1.32569C17.4274 0.924899 17.7698 0.493279 18.05 0Z" fill="#03ABE0"/>
<path d="M14.3809 16.2324C14.7443 16.2324 15.0389 16.036 15.0389 15.7937C15.0389 15.5514 14.7443 15.355 14.3809 15.355C14.0174 15.355 13.7228 15.5514 13.7228 15.7937C13.7228 16.036 14.0174 16.2324 14.3809 16.2324Z" stroke="#9E9E9E" stroke-width="0.5" stroke-linecap="round" stroke-linejoin="round"/>
<path d="M13.0005 13.8677C13.256 13.7127 13.1157 13.0145 12.6871 12.3082C12.2586 11.6018 11.704 11.1549 11.4486 11.3099C11.1931 11.4649 11.3334 12.1632 11.7619 12.8695C12.1905 13.5758 12.745 14.0228 13.0005 13.8677Z" stroke="#9E9E9E" stroke-width="0.5" stroke-linecap="round" stroke-linejoin="round"/>
<path d="M6.6233 25.4956C6.82711 25.2771 6.62449 24.7569 6.17074 24.3337C5.71699 23.9105 5.18392 23.7446 4.98011 23.9632C4.7763 24.1817 4.97892 24.7019 5.43268 25.1251C5.88643 25.5483 6.41949 25.7142 6.6233 25.4956Z" stroke="#9E9E9E" stroke-width="0.5" stroke-linecap="round" stroke-linejoin="round"/>
<path d="M8.36282 37.6837C8.36282 37.6837 7.41007 36.0958 9.52729 33.4139C10.0213 32.073 11.7151 33.1317 11.9268 32.9552C12.2797 32.6729 12.9148 31.332 14.044 30.2734C17.361 27.2034 21.9483 27.9445 22.7952 26.1095C23.1481 26.1095 23.8185 28.7208 24.2773 28.2973C25.1241 27.9092 25.6182 27.4504 26.7826 27.027C28.6176 26.3918 28.8999 26.4624 30.3466 25.9331C30.3466 25.9331 30.8054 27.027 30.5231 28.4738C30.4878 28.6502 30.4172 28.7914 30.3466 28.9325C29.9232 29.5677 29.3233 30.0264 29.2527 30.4146C29.2174 30.7321 30.3113 31.2614 30.276 31.6143C29.8173 33.9433 27.9824 35.4959 19.9017 39.0952C14.3616 41.5652 10.5153 39.448 9.03328 38.3188" stroke="#9E9E9E" stroke-linecap="round" stroke-linejoin="round"/>
<path d="M8.53923 37.5776C6.63373 38.0011 5.15168 38.1775 3.59905 38.2128L2.89331 38.9891C2.89331 38.9891 6.84545 38.848 8.92739 38.2128" stroke="#9E9E9E" stroke-linecap="round" stroke-linejoin="round"/>
<path d="M11.0094 36.9425C13.7971 38.6362 19.2666 37.0483 20.6075 36.6249C21.7014 36.3073 19.9723 35.6016 18.949 35.284C20.6427 35.1428 24.1513 34.4032 25.4216 33.4857C26.8839 32.3159 27.5943 31.2898 27.5943 30.1321" stroke="#9E9E9E" stroke-width="0.5" stroke-linecap="round" stroke-linejoin="round"/>
<path d="M29.3586 28.0503C28.3353 28.6855 24.9478 31.3673 22.0895 32.567C20.6427 33.1669 11.6446 36.4839 8.53931 37.5778" stroke="#9E9E9E" stroke-linecap="round" stroke-linejoin="round"/>
<path d="M9.70377 37.119C9.66848 36.625 9.80963 36.131 10.0214 35.6722C10.1978 35.2135 10.4095 34.7548 10.5154 34.2607" stroke="#9E9E9E" stroke-width="0.5" stroke-linecap="round" stroke-linejoin="round"/>
<path d="M13.2677 35.8133C13.55 34.049 14.3616 32.3905 15.5614 31.0496" stroke="#9E9E9E" stroke-width="0.5" stroke-linecap="round" stroke-linejoin="round"/>
<path d="M14.9263 35.2135C15.138 34.1196 15.5967 33.061 16.2319 32.1436" stroke="#9E9E9E" stroke-width="0.5" stroke-linecap="round" stroke-linejoin="round"/>
<path d="M20.8898 32.9903C21.0309 32.4963 21.1721 32.0376 21.3838 31.5789" stroke="#9E9E9E" stroke-width="0.5" stroke-linecap="round" stroke-linejoin="round"/>
<path d="M25.5476 30.591C25.6535 30.3793 25.9006 29.3108 26.0065 29.0991" stroke="#9E9E9E" stroke-width="0.5" stroke-linecap="round" stroke-linejoin="round"/>
</svg>
