<svg width="49" height="48" viewBox="0 0 49 48" fill="none" xmlns="http://www.w3.org/2000/svg">
<path d="M31.3353 18.1023C29.6869 17.4982 28.2118 17.6222 27.6802 17.7597L28.5582 18.123C29.233 18.4673 30.7046 19.1672 31.192 19.2129C31.8011 19.27 35.5816 21.0293 36.4954 21.115C37.2264 21.1835 37.7077 20.4793 37.857 20.1186L35.4204 19.8902C34.202 19.776 33.3957 18.8575 31.3353 18.1023Z" fill="#03ABE0"/>
<path d="M32.7808 14.3654L31.0393 13.3013" stroke="#9E9E9E" stroke-width="0.5" stroke-linecap="round" stroke-linejoin="round"/>
<path d="M28.3094 18.1464L31.3647 19.5853C31.3647 19.5853 32.155 19.7065 33.3527 20.2615C34.5504 20.8165 37.2865 22.1908 37.2865 22.1908L37.8861 21.7659L38.5574 20.6531L39.2288 19.5403L39.3104 18.8153C39.3104 18.8153 38.6901 18.3383 37.5872 17.5683" stroke="#9E9E9E" stroke-linecap="round" stroke-linejoin="round"/>
<path d="M32.418 14.5745C32.418 14.5745 31.5952 14.1778 31.3777 14.0186C31.1603 13.8594 31.0056 13.3284 31.0056 13.3284" stroke="#9E9E9E" stroke-width="0.5" stroke-linecap="round" stroke-linejoin="round"/>
<path d="M28.3145 18.17C28.35 18.1772 29.0827 18.0919 29.4331 18.3187C29.8189 18.5526 31.5887 19.3395 31.5887 19.3395C31.5887 19.3395 32.6422 19.5918 34.4986 20.4741C35.8983 21.1081 36.2132 21.3277 36.2132 21.3277C36.2132 21.3277 36.9024 21.5452 37.7684 20.1238C38.6343 18.7024 37.9493 18.33 37.9493 18.33C37.9493 18.33 36.0615 17.2855 35.3353 16.7879" stroke="#9E9E9E" stroke-width="0.5" stroke-linecap="round" stroke-linejoin="round"/>
<path d="M30.0479 15.8796C30.8286 14.5832 31.2771 13.4297 31.0495 13.3032C30.8219 13.1767 30.0045 14.1252 29.2237 15.4216C28.443 16.7181 27.9945 17.8716 28.2221 17.9981C28.4497 18.1245 29.2671 17.1761 30.0479 15.8796Z" stroke="#9E9E9E" stroke-width="0.5" stroke-linecap="round" stroke-linejoin="round"/>
<path d="M31.2938 13.557C31.505 13.6739 31.0696 14.799 30.3166 16.0797C29.5635 17.3604 28.795 18.3068 28.5603 18.1483C28.3492 18.0314 28.7609 16.8647 29.5048 15.6189C30.2578 14.3382 31.0591 13.3985 31.2938 13.557Z" stroke="#9E9E9E" stroke-width="0.5" stroke-linecap="round" stroke-linejoin="round"/>
<path d="M7.73886 39.8035C7.82935 38.561 7.94623 37.3612 8.07199 36.1261C8.22467 34.637 8.38625 33.1126 8.90045 31.6633C9.32608 30.4177 9.91914 29.2449 10.5827 28.087C11.4321 26.6346 12.4488 25.255 13.5625 23.933C14.0928 23.3035 14.4557 22.6013 14.66 21.7911C14.9443 20.664 14.5578 19.8396 13.5269 19.3607C12.7602 19.0122 12.0997 18.5378 11.5452 17.9375C11.4836 17.8873 11.3867 17.8296 11.3425 17.8573C10.6542 18.0821 10.0275 18.3572 9.55024 18.9237C9.01992 19.5532 8.93914 20.3154 9.05243 21.0446C9.18267 22.1485 9.43647 23.2045 9.61086 24.2806C9.82884 25.6259 9.89689 26.9763 9.66506 28.3373C9.42463 29.5851 8.98151 30.7527 8.30043 31.8326C8.16771 32.0642 7.99973 32.2883 7.83176 32.5123C7.93086 31.383 8.20628 30.291 7.92611 29.1924C7.81536 31.8409 6.84971 34.1963 5.26709 36.3464C5.37426 35.6269 5.71937 34.9952 5.61496 34.2307C5.47171 35.3879 4.61514 35.9851 3.7322 36.5397C3.9446 36.1395 4.22753 35.7543 4.33414 35.3316C4.58263 34.4938 4.79586 33.6484 4.94745 32.7529C5.17955 31.2435 4.95323 29.6367 4.76217 28.0374C4.5714 26.2898 4.49529 24.5294 4.64853 22.7435C4.78345 21.3248 5.02415 19.9286 5.62637 18.5722C6.45876 16.7451 7.8015 15.546 10.068 15.5453C10.0505 15.4674 10.0419 15.3542 10.0244 15.2763C9.63901 13.8583 9.7034 12.4247 10.0677 10.9805C10.7248 8.52243 12.1922 6.68186 14.3818 5.3659C15.8298 4.4861 17.4005 4.0035 19.0406 4.12943C19.8431 4.18865 20.6283 4.02154 21.4132 4.00282C22.4628 3.96612 23.5387 3.97213 24.5435 4.25993C25.6278 4.5275 26.5616 5.09708 27.0447 6.12756C27.4576 6.99465 27.4559 7.88498 27.2866 8.85099C27.2419 9.17549 27.1267 9.485 27.0378 9.83723C26.7388 9.40256 26.4661 9.0106 26.1582 8.61115C26.1229 8.60365 26.114 8.63888 26.0788 8.63138C26.2629 9.22718 26.6499 9.75479 26.578 10.4817C26.3845 10.2179 26.2526 10.0043 26.1207 9.79075C26.1549 10.3918 26.189 10.9928 26.2585 11.6014C26.2757 11.8277 26.3898 12.1117 26.5659 12.2976C27.094 12.8552 27.6751 13.3498 28.2474 13.8797C28.67 14.2664 28.6517 14.6336 28.2099 15.0593C28.0686 15.1777 27.9361 15.2609 27.7948 15.3793C27.3797 15.6993 27.3525 16.1017 27.8018 16.3828C27.9339 16.448 28.0925 16.5559 28.11 16.6338C28.0919 16.8527 28.0034 17.0565 27.9501 17.2678C27.9234 17.3735 27.791 17.4567 27.6938 17.5474C27.7554 17.5976 27.8171 17.6478 27.8434 17.6905C27.9315 17.7834 28.0372 17.8059 28.1961 17.7655M37.5721 21.8365C37.4832 22.1888 38.0775 25.1355 38.3935 25.9449C39.1046 27.6918 39.8598 29.4111 40.5004 31.143C40.9216 32.2716 41.2193 33.4483 41.1024 34.6481C41.0391 35.4882 40.7995 36.2908 40.6305 37.1085C40.5949 37.2493 36.4026 38.9932 32.5312 38.8755C30.2294 38.8687 27.0636 38.7524 24.8331 38.3155M28.1694 17.8711C28.2125 18.4369 28.2036 18.4722 27.771 18.7142C27.6474 18.7622 27.5414 18.8881 27.4795 18.9863C27.2937 19.2808 27.3726 19.5573 27.372 19.8541C27.4067 20.1584 27.4326 20.4979 27.3704 20.7444C27.1221 21.4339 26.5482 21.7944 25.7458 21.7351C25.0139 21.6909 24.2645 21.5687 23.5062 21.4818C23.0742 21.4271 23.0478 21.3844 22.8354 21.7845C22.4547 22.5572 22.0652 23.3651 21.6493 24.1302C21.3483 24.7343 20.9768 25.3233 20.9227 25.9798C20.8688 26.4879 20.9738 26.9556 21.3789 27.2643C22.2419 27.9673 23.149 28.6426 24.0119 29.3456C24.9718 30.1062 25.9492 30.9449 27.077 31.4815C27.9406 31.8877 28.8219 32.2235 29.712 32.524C31.0429 32.9924 32.4181 33.2847 33.8469 33.2173C34.2967 33.2016 34.7202 33.1431 35.1436 33.0847C35.118 32.5968 35.0747 32.1794 35.0403 31.7267C34.8681 29.4634 35.0224 22.3708 32.6864 21.763C32.0958 21.6004 31.119 20.465 29.9914 19.78C29.736 19.6143 28.4671 19.0477 28.6617 18.718C28.883 18.2826 29.3681 18.2743 29.9056 18.4999" stroke="#9E9E9E" stroke-linecap="round" stroke-linejoin="round"/>
<path d="M23.724 34.3453C24.2571 35.9406 25.296 39.3843 25.1871 40.3969" stroke="#9E9E9E"/>
<path d="M17.7008 14.4035C17.5686 14.1896 17.3301 14.1018 17.0825 14.1978C16.7201 14.3066 16.569 14.7577 16.5596 15.0902C16.5761 15.7627 16.9373 16.397 17.5199 16.7438C17.7495 16.8669 17.9879 16.9547 18.1732 17.1056C18.2967 17.2062 18.4025 17.3773 18.5614 17.4854C18.8173 17.6513 19.2063 17.5853 19.4188 17.3332" stroke="#9E9E9E" stroke-linecap="round" stroke-linejoin="round"/>
<path d="M16.7493 16.697C16.5988 18.3089 15.8619 19.8666 14.7247 21.045" stroke="#9E9E9E" stroke-linecap="round" stroke-linejoin="round"/>
<path d="M17.724 14.2074C17.8459 14.6028 18.3102 14.6646 18.6341 14.8444C18.617 14.6191 18.5911 14.4289 18.6091 14.2111C18.7752 14.4311 18.9763 14.6586 19.2212 14.8585C19.1868 14.5556 19.1173 14.2453 19.0828 13.9425C19.188 13.9648 19.2931 13.9872 19.3982 14.0096C20.101 13.1248 20.6813 12.14 21.0603 11.0755C21.1925 10.6973 21.3335 10.284 21.6321 9.97813C21.834 9.76253 22.1323 9.60435 22.3867 9.47377C23.0972 9.14472 23.8516 8.78806 24.5962 8.90956" stroke="#9E9E9E" stroke-linecap="round" stroke-linejoin="round"/>
<path d="M25.108 11.6795C24.0316 11.6735 22.9364 12.3316 22.4318 13.3009" stroke="#9E9E9E" stroke-linecap="round" stroke-linejoin="round"/>
<path d="M9.52808 14.908C9.57053 15.618 9.86673 16.3451 10.3208 16.8845" stroke="#9E9E9E" stroke-linecap="round" stroke-linejoin="round"/>
<path d="M12.5615 24.7561C14.9748 26.3726 17.9721 26.9915 20.8694 26.4625" stroke="#9E9E9E" stroke-width="0.5" stroke-linecap="round" stroke-linejoin="round"/>
<path d="M12.175 25.8042C14.3169 27.4125 18.4512 28.3118 21.3016 27.0409" stroke="#9E9E9E" stroke-width="0.5" stroke-linecap="round" stroke-linejoin="round"/>
<path d="M25.2091 12.745C24.8477 13.1491 24.3986 13.4606 23.8968 13.687" stroke="#9E9E9E" stroke-linecap="round" stroke-linejoin="round"/>
<path d="M33.8475 14.8844C33.771 14.7543 33.6945 14.6242 33.5925 14.4507C33.567 14.4073 33.567 14.4073 33.5415 14.364C33.5063 14.3569 33.4808 14.3135 33.4456 14.3064C33.3144 14.2417 33.1382 14.2061 32.9779 14.2502C32.8528 14.3013 32.7531 14.3959 32.6183 14.4833C32.5283 14.5416 32.4894 14.6866 32.5757 14.7804C32.6619 14.8743 32.7931 14.939 32.889 14.9966C33.0907 15.0755 33.3664 15.0165 33.5207 14.8566" stroke="#9E9E9E" stroke-linecap="round" stroke-linejoin="round"/>
<path d="M36.5535 16.8201C36.5023 16.7321 36.4609 16.6074 36.4451 16.5266C36.4195 16.4827 36.3939 16.4387 36.3683 16.3947C36.3072 16.3436 36.2364 16.3292 36.1655 16.3148C35.8466 16.2501 35.4923 16.1783 35.1735 16.1136C35.138 16.1065 35.1026 16.0993 35.0672 16.0921C35.0318 16.0849 34.9865 16.1145 34.9767 16.1513C34.7051 16.3289 34.3726 16.4554 34.0597 16.5083C34.0242 16.5011 33.979 16.5307 33.9691 16.5675C33.9593 16.6043 33.9593 16.6043 33.9849 16.6483C34.0165 16.8098 34.0933 16.9417 34.2154 17.044C34.3985 17.1975 34.6209 17.2038 34.8531 17.1734C35.0853 17.1429 35.3018 17.0317 35.4828 16.9132" stroke="#9E9E9E" stroke-linecap="round" stroke-linejoin="round"/>
<path d="M35.5574 15.9876C35.3746 15.8348 35.4628 15.5051 35.3153 15.3594C35.2288 15.2646 35.1227 15.2431 35.0166 15.2216C34.6628 15.15 34.3445 15.0856 34.0006 14.9773L33.9652 14.9701C33.9299 14.963 33.8847 14.9925 33.8749 15.0291C33.6294 15.2497 33.3938 15.4337 33.0972 15.5667L33.052 15.5962C33.052 15.5962 33.0422 15.6328 33.0325 15.6694C33.0542 15.8669 33.1919 16.0492 33.3943 16.1288C33.5967 16.2084 33.7932 16.171 34.0092 16.0603C34.2155 15.9862 34.3961 15.8683 34.5768 15.7504" stroke="#9E9E9E" stroke-linecap="round" stroke-linejoin="round"/>
<path d="M38.3451 18.3429C38.4704 18.2915 38.5545 18.1165 38.523 17.9566C38.4817 17.8331 38.3699 17.6953 38.2738 17.6375C38.1777 17.5797 38.0659 17.4419 37.9894 17.3113C37.9736 17.2313 37.9481 17.1878 37.8873 17.1371C37.7754 16.9994 37.5795 17.0365 37.4189 17.0808C37.223 17.118 37.0368 17.1188 36.8604 17.0831C36.7193 17.0546 36.5999 17.2224 36.6315 17.3824C36.708 17.513 36.7846 17.6437 36.9062 17.745C37.1238 17.9042 37.4158 17.9248 37.7018 17.829" stroke="#9E9E9E" stroke-linecap="round" stroke-linejoin="round"/>
<path d="M9.44588 16.2417C9.44588 16.2417 5.88179 16.8786 6.93344 22.2164C7.3605 24.384 7.61667 25.9601 7.74342 27.1735" stroke="#9E9E9E" stroke-width="0.5" stroke-linecap="round" stroke-linejoin="round"/>
</svg>
