<svg width="15" height="22" viewBox="0 0 15 22" fill="none" xmlns="http://www.w3.org/2000/svg">
<path d="M8.56915 1.00268C8.6896 1.0012 8.78802 1.09843 8.78802 1.21888V1.21888C8.78802 1.25536 8.74903 1.3648 8.74903 1.3648C8.74903 1.3648 8.74903 2.27681 8.74903 2.34977C8.74903 2.42273 8.52437 2.53218 8.52437 2.53218V3.0429C8.52437 3.0429 8.52437 3.18882 8.52437 3.48067C8.52437 3.77251 9.10916 4.50212 9.26511 4.61156C9.46004 4.721 11.8772 5.99781 12.501 6.32614C13.1637 6.69094 13.3197 7.16518 13.3197 7.16518C13.3197 7.16518 13.5926 7.45703 13.5926 7.56647C13.5926 7.67591 13.5926 8.00423 13.5926 8.11367C13.5926 8.22312 13.4756 8.47848 13.4756 8.47848C13.4756 8.47848 13.4756 9.46345 13.4756 9.60937C13.4756 9.75529 13.5926 9.86473 13.5926 9.86473C13.5926 9.86473 13.5926 10.4119 13.5926 10.4849C13.5926 10.5579 13.5146 10.6673 13.5146 10.6673C13.5146 10.6673 13.5146 10.7767 13.5146 10.9227C13.5146 11.0686 13.2027 11.3969 13.1248 11.4334C13.0468 11.4699 12.9688 11.7982 12.9688 11.7982C12.9688 11.7982 12.9688 15.5922 12.9688 15.9934C12.9688 16.3947 13.4756 16.796 13.4756 16.8325C13.4756 16.869 13.4756 17.1973 13.4756 17.1973L13.5926 17.4891C13.5926 17.4891 13.5926 17.9269 13.5926 18.1093C13.5926 18.2917 13.4756 18.4376 13.4756 18.4376V19.4591L13.5926 19.8604V19.8604C13.5926 20.4898 13.0824 21 12.4529 21H2.13965C1.51024 21 1 20.4898 1 19.8604V19.8604L1.11696 19.4591V18.4376C1.11696 18.4376 1 18.3282 1 18.1458C1 17.9634 1 17.5256 1 17.5256L1.11696 17.2338C1.11696 17.2338 1.11696 16.9419 1.11696 16.869C1.11696 16.8325 1.62378 16.4312 1.62378 16.0299C1.62378 15.6286 1.62378 11.8347 1.62378 11.8347C1.62378 11.8347 1.54581 11.5063 1.46784 11.4699C1.38986 11.4334 1.07797 11.1051 1.07797 10.9591C1.07797 10.8132 1.07797 10.7038 1.07797 10.7038C1.07797 10.7038 1 10.6308 1 10.5214C1 10.4119 1 9.90121 1 9.90121C1 9.90121 1.11696 9.79177 1.11696 9.64585C1.11696 9.49993 1.11696 8.51496 1.11696 8.51496C1.11696 8.51496 1 8.29608 1 8.18663C1 8.07719 1 7.74887 1 7.63943C1 7.52999 1.2729 7.23815 1.2729 7.23815C1.2729 7.23815 1.46784 6.72742 2.09162 6.3991C2.7154 6.07077 5.17154 4.79396 5.32749 4.68452C5.48343 4.57508 6.06823 3.80899 6.06823 3.55363C6.06823 3.29826 6.06823 3.11586 6.06823 3.11586V2.56866C6.06823 2.56866 5.84356 2.45922 5.84356 2.38625C5.84356 2.31329 5.84356 1.40128 5.84356 1.40128C5.84356 1.40128 5.80457 1.29184 5.80457 1.25536V1.25536C5.80457 1.13405 5.90213 1.03529 6.02344 1.0338L8.56915 1.00268Z" stroke="#044988"/>
<path d="M1.37036 7.66724H13.2222" stroke="#044988"/>
<path d="M1.37036 16.5552H13.2222" stroke="#044988"/>
<path d="M1.37036 10.6299H13.2222" stroke="#044988"/>
<path d="M1.37036 19.5181H13.2222" stroke="#044988"/>
</svg>
