<svg width="40" height="38" viewBox="0 0 40 38" fill="none" xmlns="http://www.w3.org/2000/svg">
<path d="M13.4532 1C13.652 1 13.7844 1.4968 13.7844 1.69553C13.7844 1.76177 13.7182 1.96049 13.7182 1.96049C13.7182 1.96049 13.7182 4.84196 13.7182 4.97444C13.7182 5.10692 13.3539 5.27252 13.3539 5.27252V6.16677C13.3539 6.16677 13.3539 6.43173 13.3539 6.92854C13.3539 7.16038 13.9832 7.09414 14.215 7.45846C14.5131 7.88902 14.4137 8.78327 14.5462 8.88263C14.8774 9.08136 18.8518 11.2673 19.8786 11.8303C20.9715 12.4596 21.2365 13.2876 21.2365 13.2876C21.2365 13.2876 21.7002 13.7844 21.7002 13.9832C21.7002 14.1819 21.7002 14.7449 21.7002 14.9105C21.7002 15.0761 21.5015 15.5398 21.5015 15.5398C21.5015 15.5398 21.5015 17.229 21.5015 17.4939C21.5015 17.7589 21.7002 17.9245 21.7002 17.9245C21.7002 17.9245 21.7002 18.8518 21.7002 18.9843C21.7002 19.1168 21.5677 19.2824 21.5677 19.2824C21.5677 19.2824 21.5677 19.4811 21.5677 19.713C21.5677 19.9779 21.0709 20.541 20.9384 20.6072C20.8059 20.6735 20.6735 21.2365 20.6735 21.2365C20.6735 21.2365 20.6735 27.7612 20.6735 28.4567C20.6735 29.1523 21.5015 29.8478 21.5015 29.914C21.5015 29.9803 21.5015 30.5433 21.5015 30.5433L21.7002 31.0401C21.7002 31.0401 21.7002 31.8019 21.7002 32.1C21.7002 32.3981 21.5015 32.663 21.5015 32.663V34.4184L21.7002 35.1139C21.7002 36.2069 20.9053 37.068 19.8786 37.068H2.82162C1.82801 37.068 1 36.1738 1 35.1139L1.19872 34.4184V32.663C1.19872 32.663 1 32.4643 1 32.1662C1 31.8681 1 31.1064 1 31.1064L1.19872 30.6096C1.19872 30.6096 1.19872 30.1128 1.19872 29.9803C1.19872 29.914 2.02673 29.2185 2.02673 28.523C2.02673 27.8275 2.02673 21.3027 2.02673 21.3027C2.02673 21.3027 1.89425 20.7397 1.76177 20.7066C1.62929 20.6403 1.13248 20.0773 1.13248 19.8123C1.13248 19.5474 1.13248 19.3818 1.13248 19.3818C1.13248 19.3818 1 19.2493 1 19.0506C1 18.8518 1 17.9907 1 17.9907C1 17.9907 1.19872 17.792 1.19872 17.5602C1.19872 17.2952 1.19872 15.6061 1.19872 15.6061C1.19872 15.6061 1 15.2417 1 15.043C1 14.8443 1 14.2812 1 14.1156C1 13.9169 1.46368 13.4201 1.46368 13.4201C1.46368 13.4201 1.79489 12.5259 2.82162 11.9628C3.81523 11.3998 7.8559 9.18072 8.12087 9.01512C8.25335 8.91575 8.35271 7.88902 8.61767 7.45846C8.88263 7.06102 9.34632 7.25974 9.34632 7.06102C9.34632 6.63045 9.34632 6.29925 9.34632 6.29925V5.37188C9.34632 5.37188 8.982 5.17316 8.982 5.0738C8.982 4.94132 8.982 2.05985 8.982 2.05985C8.982 2.05985 8.88263 1.82801 8.88263 1.76177C8.88263 1.56305 9.04824 1.06624 9.21384 1.03312L13.4532 1Z" stroke="#979797" stroke-linecap="round" stroke-linejoin="round"/>
<path d="M5.93762 23.0976L8.59472 21.6362" stroke="#979797" stroke-linecap="round" stroke-linejoin="round"/>
<path d="M6.77905 24.6478L9.43615 23.1421" stroke="#979797" stroke-linecap="round" stroke-linejoin="round"/>
<path d="M4.87484 26.5964C5.92653 26.5964 6.77909 25.7438 6.77909 24.6921C6.77909 23.6404 5.92653 22.7878 4.87484 22.7878C3.82315 22.7878 2.97058 23.6404 2.97058 24.6921C2.97058 25.7438 3.82315 26.5964 4.87484 26.5964Z" fill="#03ABE0"/>
<path d="M10.5876 23.4079C11.6393 23.4079 12.4919 22.5553 12.4919 21.5036C12.4919 20.4519 11.6393 19.5994 10.5876 19.5994C9.53591 19.5994 8.68335 20.4519 8.68335 21.5036C8.68335 22.5553 9.53591 23.4079 10.5876 23.4079Z" fill="#03ABE0"/>
<path d="M16.1675 20.2415L17.806 21.4814" stroke="#979797" stroke-linecap="round" stroke-linejoin="round"/>
<path d="M15.459 21.2158L17.0975 22.4558" stroke="#979797" stroke-linecap="round" stroke-linejoin="round"/>
<path d="M14.8831 21.3044C15.5924 21.3044 16.1674 20.7294 16.1674 20.0201C16.1674 19.3108 15.5924 18.7358 14.8831 18.7358C14.1739 18.7358 13.5989 19.3108 13.5989 20.0201C13.5989 20.7294 14.1739 21.3044 14.8831 21.3044Z" fill="#03ABE0"/>
<path d="M18.4264 23.9616C19.1356 23.9616 19.7106 23.3866 19.7106 22.6773C19.7106 21.9681 19.1356 21.3931 18.4264 21.3931C17.7171 21.3931 17.1421 21.9681 17.1421 22.6773C17.1421 23.3866 17.7171 23.9616 18.4264 23.9616Z" fill="#03ABE0"/>
<path d="M1.33105 13.4202H21.2032" stroke="#979797" stroke-width="0.5" stroke-linecap="round" stroke-linejoin="round"/>
<path d="M9.11462 5.13989H13.4203" stroke="#979797" stroke-width="0.5" stroke-linecap="round" stroke-linejoin="round"/>
<path d="M8.94897 2.15942H13.5858" stroke="#979797" stroke-width="0.5" stroke-linecap="round" stroke-linejoin="round"/>
<path d="M8.94897 4.47778H13.5858" stroke="#979797" stroke-width="0.5" stroke-linecap="round" stroke-linejoin="round"/>
<path d="M8.94897 3.48413H13.5858" stroke="#979797" stroke-width="0.5" stroke-linecap="round" stroke-linejoin="round"/>
<path d="M9.28003 5.80249H13.2545" stroke="#979797" stroke-width="0.5" stroke-linecap="round" stroke-linejoin="round"/>
<path d="M9.28003 7.1272H13.2545" stroke="#979797" stroke-width="0.5" stroke-linecap="round" stroke-linejoin="round"/>
<path d="M8.28638 8.78345H14.5792" stroke="#979797" stroke-width="0.5" stroke-linecap="round" stroke-linejoin="round"/>
<path d="M1.33105 17.3945H21.5344" stroke="#979797" stroke-width="0.5" stroke-linecap="round" stroke-linejoin="round"/>
<path d="M1.33105 29.9802H21.5344" stroke="#979797" stroke-width="0.5" stroke-linecap="round" stroke-linejoin="round"/>
<path d="M2.15918 28.6555H20.5409" stroke="#979797" stroke-width="0.5" stroke-linecap="round" stroke-linejoin="round"/>
<path d="M1.33105 32.9612H21.5344" stroke="#979797" stroke-width="0.5" stroke-linecap="round" stroke-linejoin="round"/>
<path d="M1.33105 35.1582H21.5344" stroke="#979797" stroke-width="0.5" stroke-linecap="round" stroke-linejoin="round"/>
<path d="M39.0719 36.3392V37.1326H35.6514V36.4536L37.2923 34.5045C37.4634 34.2909 37.5987 34.1053 37.6982 33.9476C37.7976 33.7899 37.8681 33.6475 37.9098 33.5204C37.9537 33.3907 37.9757 33.2674 37.9757 33.1504C37.9757 32.98 37.9479 32.8313 37.8924 32.7041C37.8369 32.5744 37.756 32.474 37.6496 32.4028C37.5455 32.3316 37.4172 32.296 37.2645 32.296C37.0957 32.296 36.9511 32.3392 36.8309 32.4257C36.7129 32.5096 36.6227 32.6266 36.5603 32.7766C36.5002 32.9266 36.4701 33.0983 36.4701 33.2915H35.5508C35.5508 32.9635 35.6202 32.6647 35.7589 32.3952C35.8977 32.1231 36.0966 31.9056 36.3556 31.7429C36.6146 31.5802 36.9222 31.4988 37.2784 31.4988C37.6253 31.4988 37.919 31.5624 38.1595 31.6895C38.4001 31.8141 38.5828 31.9921 38.7077 32.2235C38.8326 32.4549 38.895 32.7308 38.895 33.0512C38.895 33.2292 38.8684 33.4047 38.8152 33.5776C38.762 33.7505 38.6868 33.9222 38.5897 34.0925C38.4949 34.2604 38.3816 34.4308 38.2497 34.6037C38.1179 34.7766 37.9711 34.9533 37.8092 35.1339L36.8239 36.3392H39.0719Z" stroke="#979797" stroke-width="0.5" stroke-linecap="round" stroke-linejoin="round"/>
<path d="M34.9064 28.2541C34.9064 34.1397 32.7029 37.387 28.9048 37.387C25.5415 37.387 23.222 34.2267 23.1641 28.515C23.1641 22.6873 25.6865 19.527 29.1947 19.527C32.8189 19.4981 34.9064 22.7453 34.9064 28.2541ZM25.5415 28.515C25.5415 33.009 26.9332 35.5604 29.0497 35.5604C31.4272 35.5604 32.5579 32.777 32.5579 28.37C32.5579 24.108 31.4852 21.3246 29.0497 21.3246C27.0202 21.3246 25.5415 23.8181 25.5415 28.515Z" stroke="#979797" stroke-linecap="round" stroke-linejoin="round"/>
<path d="M30.0935 19.5852C33.7177 19.5852 35.8052 22.8325 35.8052 28.3412C35.8052 34.2269 33.2828 37.3002 29.4847 37.3002M29.9196 21.3828C27.89 21.3828 26.4114 23.8762 26.4114 28.5732C26.4114 33.0672 27.6291 35.5316 29.7456 35.5316" stroke="#979797" stroke-width="0.5" stroke-linecap="round" stroke-linejoin="round"/>
</svg>
